Coordinates
version=1
nRows=14
nColumns=42
inDegrees=yes

Units are S.I. units (second, meters, Newtons, ...)
If the header above contains a line with 'inDegrees', this indicates whether rotational values are in degrees (yes) or radians (no).

endheader
time	pelvis_tilt	pelvis_list	pelvis_rotation	pelvis_tx	pelvis_ty	pelvis_tz	hip_flexion_r	hip_adduction_r	hip_rotation_r	knee_angle_r	knee_adduction_r	knee_angle_r_beta	ankle_angle_r	subtalar_angle_r	mtp_angle_r	hip_flexion_l	hip_adduction_l	hip_rotation_l	knee_angle_l	knee_adduction_l	knee_angle_l_beta	ankle_angle_l	subtalar_angle_l	mtp_angle_l	lumbar_extension	lumbar_bending	lumbar_rotation	arm_flex_r	arm_add_r	arm_rot_r	elbow_flex_r	pro_sup_r	wrist_flex_r	wrist_dev_r	arm_flex_l	arm_add_l	arm_rot_l	elbow_flex_l	pro_sup_l	wrist_flex_l	wrist_dev_l
      1.96000000	      0.86274488	      0.82675333	     -7.38972886	      0.10996079	      0.86511577	     -0.17190968	    -20.62815240	     -8.71106989	     -0.09033553	     16.36760447	     14.19791770	      0.28566859	     11.74269294	      6.97228086	     -7.50392214	     22.51272246	     -6.93675784	     -5.78718775	     12.38121732	     14.78581596	      0.21609301	     -3.70510430	     -6.18529686	     -7.50392214	    -14.86042845	     -2.12742873	      4.25050610	     -2.60814567	    -13.69057705	     -4.91961224	     19.49234291	     90.00000001	      0.00000000	      0.00000000	    -11.98368401	     -6.67614657	      1.49238147	     20.19303647	     90.00000001	      0.00000000	      0.00000000
      1.97000000	      1.02271774	      1.02697656	     -7.23793449	      0.12222230	      0.86598820	     -0.17312275	    -20.38037790	     -9.32803229	     -0.16876002	     18.57954810	     14.50063193	      0.32427429	      9.58492068	      6.68765690	     -7.50383033	     22.34969146	     -6.61313586	     -5.11983590	     13.67065434	     15.06567080	      0.23859793	     -4.47826022	     -6.25261253	     -7.50383033	    -15.13602689	     -2.44744757	      4.02513094	     -2.83935059	    -13.63579859	     -5.00416297	     19.34406060	     90.00000001	      0.00000000	      0.00000000	    -11.83497791	     -6.88916314	      1.42630513	     20.19987773	     90.00000001	      0.00000000	      0.00000000
      1.98000000	      0.95162555	      1.21285958	     -7.01589284	      0.13416516	      0.86671396	     -0.17450296	    -19.39594735	     -9.94655027	     -1.29021218	     21.89501288	     14.54088468	      0.38214006	      7.85436826	      8.35165028	     -7.50345406	     22.43601052	     -6.28923319	     -4.31381326	     14.90629691	     15.33290531	      0.26016396	     -5.02715381	     -6.75716863	     -7.50345406	    -15.17592032	     -2.69230267	      3.74283990	     -3.04043302	    -13.57661122	     -5.26526605	     19.13454447	     90.00000001	      0.00000000	      0.00000000	    -11.65573275	     -7.09991672	      1.27382309	     20.18248653	     90.00000001	      0.00000000	      0.00000000
      1.99000000	      1.29508024	      1.29629804	     -6.79891444	      0.14646376	      0.86834533	     -0.17580394	    -19.09499371	    -10.48101823	     -1.28742036	     24.38358493	     14.85562108	      0.42557384	      5.04218720	      7.87411411	     -7.50338690	     21.83686452	     -6.08765829	     -3.80000651	     15.89175179	     15.69629066	      0.27736339	     -4.85653408	     -6.67414403	     -7.50338690	    -15.67857522	     -2.85857848	      3.47163801	     -3.26078961	    -13.55970771	     -5.27679443	     19.01926622	     90.00000001	      0.00000000	      0.00000000	    -11.47839657	     -7.30571128	      1.26293268	     20.25855349	     90.00000001	      0.00000000	      0.00000000
      2.00000000	      1.26008519	      1.44635909	     -6.54190515	      0.15834498	      0.86955024	     -0.17724238	    -17.92964273	    -11.10798925	     -1.75679737	     27.76296519	     15.04259970	      0.48455515	      2.54836364	      7.69593450	     -7.50328112	     21.68240153	     -5.79556465	     -3.34838145	     16.88915550	     15.92510224	      0.29477137	     -4.56516496	     -6.52129647	     -7.50328112	    -15.76201447	     -3.02962994	      3.16512790	     -3.46238153	    -13.50887316	     -5.35302698	     18.81971965	     90.00000001	      0.00000000	      0.00000000	    -11.27182736	     -7.52340897	      1.20069208	     20.25296602	     90.00000001	      0.00000000	      0.00000000
      2.01000000	      1.43387772	      1.49085969	     -6.30780365	      0.17024275	      0.87126058	     -0.17854566	    -16.93700018	    -11.58834348	     -2.01277121	     30.98862638	     15.09831759	      0.54085356	     -0.15192617	      7.58510054	     -7.50320446	     21.11952937	     -5.63417056	     -3.00172161	     17.65766588	     16.22897199	      0.30818441	     -3.78209556	     -6.28368128	     -7.50320446	    -16.10338121	     -3.10508179	      2.90250051	     -3.65015138	    -13.51268661	     -5.40345779	     18.66352751	     90.00000001	      0.00000000	      0.00000000	    -11.06580364	     -7.74997059	      1.15852325	     20.33058748	     90.00000001	      0.00000000	      0.00000000
      2.02000000	      1.64560476	      1.48377376	     -6.07679920	      0.18200877	      0.87319310	     -0.17973579	    -15.86356810	    -11.99272663	     -2.03125608	     34.19209731	     15.17108279	      0.59676468	     -2.78988447	      7.06495923	     -7.50315995	     20.36409145	     -5.51092431	     -2.73170584	     18.16175140	     16.49345598	      0.31698236	     -2.70731075	     -6.09554884	     -7.50315995	    -16.49502930	     -3.12644305	      2.67700103	     -3.83777054	    -13.48150696	     -5.42554821	     18.50204180	     90.00000001	      0.00000000	      0.00000000	    -10.82604379	     -7.98185504	      1.12723791	     20.47908222	     90.00000001	      0.00000000	      0.00000000
      2.03000000	      1.55142760	      1.55135285	     -5.86162570	      0.19342054	      0.87469864	     -0.18108960	    -14.16092085	    -12.45825965	     -2.02102908	     37.74921137	     15.13970772	      0.65884803	     -4.87635804	      6.32403570	     -7.50310355	     19.94159202	     -5.31214771	     -2.56321157	     18.65152761	     16.68833871	      0.32553057	     -1.70801111	     -5.52616268	     -7.50310355	    -16.53735300	     -3.15938001	      2.43674546	     -4.01663332	    -13.48795405	     -5.43689673	     18.36474538	     90.00000001	      0.00000000	      0.00000000	    -10.62661569	     -8.18386595	      1.11073300	     20.58391933	     90.00000001	      0.00000000	      0.00000000
      2.04000000	      1.42444903	      1.56170692	     -5.65920845	      0.20464646	      0.87622834	     -0.18225847	    -12.33686722	    -12.77489116	     -1.81521823	     41.15383963	     15.02795577	      0.71827000	     -6.48743830	      5.41829410	     -7.50302730	     19.49837999	     -5.19028737	     -2.60765096	     19.08861346	     16.81992622	      0.33315915	     -0.49113835	     -4.77203923	     -7.50302730	    -16.55574268	     -3.13596642	      2.21554256	     -4.19090423	    -13.48995444	     -5.40695323	     18.24647774	     90.00000001	      0.00000000	      0.00000000	    -10.41440667	     -8.41607947	      1.11049278	     20.74056261	     90.00000001	      0.00000000	      0.00000000
      2.05000000	      1.18614804	      1.56691840	     -5.43691955	      0.21560499	      0.87766923	     -0.18342893	    -10.29433976	    -13.02148863	     -1.41923926	     44.44270299	     14.95124475	      0.77567150	     -7.49521130	      4.18255483	     -7.50294413	     19.14705792	     -5.05764854	     -2.76636582	     19.45115867	     16.85528978	      0.33948676	      0.59472286	     -3.80675579	     -7.50294413	    -16.45490086	     -3.07901927	      2.01334832	     -4.37411605	    -13.47851300	     -5.37783734	     18.11975138	     90.00000001	      0.00000000	      0.00000000	    -10.19334524	     -8.64269494	      1.11792097	     20.89479160	     90.00000001	      0.00000000	      0.00000000
      2.06000000	      1.03889264	      1.50871180	     -5.23717372	      0.22664468	      0.87926637	     -0.18449204	     -8.37816296	    -13.11943521	     -0.89954497	     47.38772059	     14.83531750	      0.82707175	     -7.91224490	      2.73287839	     -7.50287308	     18.56437075	     -4.99195931	     -2.92047400	     19.60308450	     16.90199465	      0.34213837	      1.65289774	     -2.92794017	     -7.50287308	    -16.43006018	     -2.94995103	      1.79905942	     -4.53235005	    -13.49058539	     -5.35181080	     18.02093804	     90.00000001	      0.00000000	      0.00000000	    -10.03775349	     -8.86730298	      1.13112048	     21.07347518	     90.00000001	      0.00000000	      0.00000000
      2.07000000	      0.63310033	      1.37623643	     -5.02945952	      0.23726055	      0.88052079	     -0.18569534	     -6.11873303	    -13.08034067	      0.04716545	     50.07604097	     15.02624303	      0.87399179	     -7.85277438	      0.55576938	     -7.50265645	     18.54060733	     -5.02340737	     -3.83707760	     20.45976873	     16.63416473	      0.35709033	      2.89153241	     -0.93047007	     -7.50265645	    -16.12690338	     -2.68053185	      1.64088713	     -4.72097201	    -13.55718564	     -5.35656856	     17.93231074	     90.00000001	      0.00000000	      0.00000000	     -9.82790658	     -9.01986556	      1.16867182	     21.20689665	     90.00000001	      0.00000000	      0.00000000
      2.08000000	      0.67563339	      1.24426623	     -4.83837714	      0.24808618	      0.88253217	     -0.18638512	     -4.43861327	    -12.91056742	      0.28089584	     52.39894128	     14.55906953	      0.91453405	     -7.16000289	     -0.84964784	     -7.50260203	     17.50244546	     -5.05014214	     -3.72665014	     20.05835024	     16.79061025	      0.35008425	      3.71710978	     -0.15663111	     -7.50260203	    -16.31230834	     -2.51131415	      1.50275584	     -4.87010242	    -13.54157921	     -5.29856784	     17.85466964	     90.00000001	      0.00000000	      0.00000000	     -9.60316854	     -9.28082472	      1.17614983	     21.49201967	     90.00000001	      0.00000000	      0.00000000
      2.09000000	      0.52285566	      1.14515138	     -4.65060804	      0.25864861	      0.88428289	     -0.18731030	     -2.49427397	    -12.79022208	      0.53336024	     54.51890087	     14.19231794	      0.95153432	     -6.15515121	     -2.39096945	     -7.50253985	     16.73881145	     -4.99046001	     -3.73619363	     19.74444744	     16.77555649	      0.34460562	      4.36527779	      0.56762904	     -7.50253985	    -16.26884454	     -2.31133009	      1.32489458	     -5.00597599	    -13.55511274	     -5.25442014	     17.79178264	     90.00000001	      0.00000000	      0.00000000	     -9.42084329	     -9.47157439	      1.23121715	     21.71845762	     90.00000001	      0.00000000	      0.00000000
